<?xml version="1.0" standalone="no"?>
<svg xmlns:xlink="http://www.w3.org/1999/xlink" id="wave" style="transform:rotate(180deg); transition: 0.3s" viewBox="0 0 1440 100" version="1.1" xmlns="http://www.w3.org/2000/svg"><defs><linearGradient id="sw-gradient-0" x1="0" x2="0" y1="1" y2="0"><stop stop-color="rgba(213, 243, 246, 1)" offset="0%"/><stop stop-color="rgba(213, 243, 246, 1)" offset="100%"/></linearGradient></defs><path style="transform:translate(0, 0px); opacity:1" fill="url(#sw-gradient-0)" d="M0,90L40,83.3C80,77,160,63,240,51.7C320,40,400,30,480,36.7C560,43,640,67,720,70C800,73,880,57,960,55C1040,53,1120,67,1200,68.3C1280,70,1360,60,1440,50C1520,40,1600,30,1680,35C1760,40,1840,60,1920,70C2000,80,2080,80,2160,73.3C2240,67,2320,53,2400,53.3C2480,53,2560,67,2640,75C2720,83,2800,87,2880,85C2960,83,3040,77,3120,66.7C3200,57,3280,43,3360,46.7C3440,50,3520,70,3600,71.7C3680,73,3760,57,3840,51.7C3920,47,4000,53,4080,61.7C4160,70,4240,80,4320,78.3C4400,77,4480,63,4560,61.7C4640,60,4720,70,4800,73.3C4880,77,4960,73,5040,66.7C5120,60,5200,50,5280,40C5360,30,5440,20,5520,20C5600,20,5680,30,5720,35L5760,40L5760,100L5720,100C5680,100,5600,100,5520,100C5440,100,5360,100,5280,100C5200,100,5120,100,5040,100C4960,100,4880,100,4800,100C4720,100,4640,100,4560,100C4480,100,4400,100,4320,100C4240,100,4160,100,4080,100C4000,100,3920,100,3840,100C3760,100,3680,100,3600,100C3520,100,3440,100,3360,100C3280,100,3200,100,3120,100C3040,100,2960,100,2880,100C2800,100,2720,100,2640,100C2560,100,2480,100,2400,100C2320,100,2240,100,2160,100C2080,100,2000,100,1920,100C1840,100,1760,100,1680,100C1600,100,1520,100,1440,100C1360,100,1280,100,1200,100C1120,100,1040,100,960,100C880,100,800,100,720,100C640,100,560,100,480,100C400,100,320,100,240,100C160,100,80,100,40,100L0,100Z"/></svg>